<?xml version="1.0" encoding="UTF-8"?>
<svg width="1920px" height="350px" viewBox="0 0 1920 350" version="1.1" xmlns="http://www.w3.org/2000/svg" xmlns:xlink="http://www.w3.org/1999/xlink">
    <!-- Generator: Sketch 63.1 (92452) - https://sketch.com -->
    <title>Icon/ContiLogo</title>
    <desc>Created with Sketch.</desc>
    <g id="Icon/ContiLogo" stroke="none" stroke-width="1" fill="none" fill-rule="evenodd">
        <path d="M237.709098,-1.13686838e-13 C237.709098,-1.13686838e-13 281.009268,43.2525039 300.450161,65.320108 L300.450161,82.0914871 C275.325652,59.1302432 242.599265,46.2426973 208.547759,45.9006164 C128.133157,45.9006164 77.763571,106.807204 77.763571,181.837057 C77.763571,256.866911 125.482126,316.890794 208.547759,316.890794 C243.584844,317.18388 277.177457,302.962684 301.333838,277.610459 L301.333838,293.499134 C276.590883,327.924596 230.639682,349.9922 173.200681,349.9922 C70.6941555,350.874904 4.54747351e-13,276.727755 4.54747351e-13,182.278409 C0.325338472,136.816138 18.7912116,93.3613886 51.3041969,61.5469947 C83.8171821,29.7326007 127.691273,12.1868548 173.200681,12.7992103 C195.131759,12.8667279 216.910439,16.4428439 237.709098,23.3916603 L237.709098,-1.13686838e-13 Z M214.733497,83.4155433 C272.172499,83.4155433 304.868545,127.992103 304.868545,181.837057 C304.868545,235.682011 272.172499,279.817219 214.733497,279.817219 C157.294496,279.817219 124.598449,235.682011 124.598449,181.837057 L124.598449,181.837057 L124.598449,181.395705 C124.598449,127.550751 157.294496,83.4155433 214.733497,83.4155433 Z M1463.36902,88.7117683 C1506.66919,88.7117683 1532.29582,114.310189 1532.29582,153.149172 L1532.29582,253.777447 L1550.85304,253.777447 L1550.85304,270.548826 L1478.39153,270.548826 L1477.50785,249.363926 C1467.20868,265.120017 1449.50722,274.461438 1430.67297,274.079642 C1401.51163,274.079642 1383.83809,249.363926 1383.83809,219.351984 C1383.83809,184.043818 1409.46472,161.09351 1450.11386,161.09351 C1458.79603,160.784726 1467.4662,161.979295 1475.7405,164.624326 L1475.7405,153.149172 C1476.50315,144.275473 1473.30418,135.518215 1466.99951,129.220481 C1460.69484,122.922747 1451.92793,119.727303 1443.04445,120.489118 C1426.85063,120.521581 1411.68589,128.424908 1402.39531,141.674018 L1392.67486,129.31616 C1407.76667,104.625625 1434.41459,89.3199348 1463.36902,88.7117683 Z M1001.20598,89.1531204 C1055.11027,89.1531204 1075.43484,126.226695 1075.43484,176.540832 C1075.43484,180.071649 1074.55116,186.250578 1074.55116,189.781395 L1074.55116,189.781395 L979.114053,189.781395 C979.99773,231.26849 1005.62436,240.095532 1021.53055,240.095532 C1036.40585,240.898846 1050.79806,234.690871 1060.41233,223.324153 L1060.41233,223.324153 L1071.01646,232.151195 C1058.31072,258.831766 1030.74181,275.215469 1001.20598,273.63829 C947.301683,273.63829 919.907698,233.033899 919.907698,181.837057 C919.907698,130.640216 947.301683,89.1531204 1001.20598,89.1531204 Z M1352.9094,45.0179123 L1352.9094,92.2425849 L1379.86155,92.2425849 L1379.86155,108.13126 L1352.02572,108.13126 L1352.02572,239.65418 C1351.7526,242.773254 1352.87489,245.853228 1355.09126,248.067167 C1357.30764,250.281107 1360.39101,251.402159 1363.51352,251.129334 C1367.11346,251.038771 1370.6829,250.444519 1374.11765,249.363926 L1374.11765,265.252601 C1363.47794,270.66895 1351.56944,273.10903 1339.65425,272.314234 C1312.26026,272.314234 1295.4704,259.073672 1295.4704,229.944434 L1295.4704,108.572612 L1276.91318,108.572612 L1276.91318,97.0974578 C1298.12143,80.3260787 1322.86438,60.9065872 1342.30528,45.0179123 L1352.9094,45.0179123 Z M584.552298,45.0179123 L584.552298,92.2425849 L606.644222,92.2425849 L606.644222,108.13126 L584.11046,108.13126 L584.11046,239.65418 C583.837334,242.773254 584.959622,245.853228 587.176001,248.067167 C589.39238,250.281107 592.475749,251.402159 595.59826,251.129334 C599.198192,251.038771 602.767638,250.444519 606.202383,249.363926 L606.202383,265.252601 C595.562676,270.66895 583.654175,273.10903 571.738982,272.314234 C544.344997,272.314234 527.555135,259.073672 527.555135,229.944434 L527.555135,108.572612 L508.997919,108.572612 L508.997919,97.0974578 C530.206166,80.3260787 554.94912,60.9065872 574.390013,45.0179123 L584.552298,45.0179123 Z M1920,262.141431 L1920,270.967742 L1660.23529,270.967742 L1660.23529,262.141431 L1920,262.141431 Z M1648.94118,253.777447 L1648.94118,270.548826 L1570.29393,270.548826 L1570.29393,43.2525039 L1550.85304,43.2525039 L1550.85304,26.4811249 L1627.29109,26.4811249 L1627.291,253.777 L1626.84925,253.777447 L1627.29109,254.218799 L1627.291,253.777 L1648.94118,253.777447 Z M483.371288,125.785343 C485.090625,135.401044 485.97758,145.146811 486.022319,154.91458 L486.022319,253.777447 L507.230566,253.777447 L507.230566,270.548826 L429.466995,270.548826 L429.466995,148.294299 L430.350671,147.852947 C430.350671,131.964272 425.04861,119.606414 411.793456,119.606414 C398.538301,119.606414 392.352563,131.964272 392.352563,147.852947 L392.352563,252.894742 L407.816909,252.894742 L407.816909,269.666122 L319.007377,269.666122 L319.007377,252.894742 L335.797239,252.894742 L335.797239,108.572612 L319.007377,108.572612 L319.007377,92.2425849 L388.817855,92.2425849 L388.817855,119.606414 L389.701532,119.606414 C397.723926,100.87967 416.144675,88.7284157 436.53641,88.7117683 C459.323626,87.3461654 479.494998,103.313429 483.371288,125.785343 Z M889.862682,125.785343 C891.582019,135.401044 892.468974,145.146811 892.513713,154.91458 L892.513713,253.777447 L913.72196,253.777447 L913.72196,270.548826 L835.958389,270.548826 L836.842065,147.852947 C836.842065,131.964272 831.540004,119.606414 818.28485,119.606414 C805.029695,119.606414 798.843957,131.964272 798.843957,147.852947 L798.843957,252.894742 L814.750142,252.894742 L814.750142,269.666122 L725.498771,269.666122 L725.498771,252.894742 L742.288632,252.894742 L742.288632,108.572612 L725.498771,108.572612 L725.498771,92.2425849 L795.309249,92.2425849 L795.309249,119.606414 L796.192926,119.606414 C804.21532,100.87967 822.636069,88.7284157 843.027804,88.7117683 C865.81502,87.3461654 885.986392,103.313429 889.862682,125.785343 Z M695.453754,92.2425849 L695.453754,253.777447 L712.243616,253.777447 L712.243616,270.548826 L622.992245,270.548826 L622.992245,253.777447 L638.89843,253.777447 L638.89843,108.572612 L622.992245,108.572612 L622.992245,92.2425849 L695.453754,92.2425849 Z M214.733497,102.393683 C196.176281,102.393683 190.87422,126.226695 190.87422,180.954353 C190.87422,235.682011 196.176281,259.515024 214.733497,259.515024 C233.290713,259.515024 238.592775,235.682011 238.592775,180.954353 C238.592775,126.226695 233.290713,102.393683 214.733497,102.393683 Z M1778.23011,-1.13686838e-13 C1781.75234,-1.13686838e-13 1789.67737,8.82631081 1791.43848,11.4742041 C1796.04871,17.3027133 1800.17194,23.5021082 1803.7663,30.0094568 C1805.77826,47.6850006 1803.35693,65.5843883 1796.72183,82.0846906 C1805.94499,95.0365809 1815.94299,107.416122 1826.66082,119.155196 L1826.66082,119.155196 L1826.66082,118.71388 C1834.58584,125.333614 1858.36092,131.512031 1858.36092,155.34307 C1857.62091,165.470069 1853.60137,175.077704 1846.91366,182.704634 L1846.91366,182.704634 L1853.95813,207.418304 C1854.83868,209.183566 1854.83868,210.066197 1853.07757,211.831459 L1853.07757,211.831459 L1826.66082,240.958285 L1824.01914,253.31512 L1802.00518,253.31512 C1802.39848,245.112411 1807.08633,237.728445 1814.333,233.897237 L1814.333,233.897237 L1832.82473,210.066197 L1801.12463,177.408847 C1798.73816,170.821221 1796.9694,164.024995 1795.84128,157.108332 C1782.39565,149.192316 1769.71899,140.031817 1757.97727,129.746769 C1752.61735,123.152534 1747.89952,116.059131 1743.88833,108.563623 L1743.88833,108.563623 L1717.47159,90.0283703 L1707.78544,97.0894189 L1707.78544,112.976778 C1708.71292,116.709272 1710.19725,120.28003 1712.18824,123.568351 L1712.18824,123.568351 L1702.50209,138.57308 C1698.21928,132.698134 1696.04673,125.542957 1696.33819,118.272565 L1696.33819,118.272565 L1696.33819,112.094147 L1697.21874,93.5588946 C1697.24515,92.1762038 1697.89215,90.8791595 1698.97986,90.0283703 L1698.97986,90.0283703 L1714.82991,73.2583797 C1715.71047,72.3757487 1716.59103,72.3757487 1718.35214,72.3757487 L1718.35214,72.3757487 L1739.48554,79.4367973 L1757.09671,67.0799622 L1772.0662,45.0141851 C1764.06807,46.0575081 1756.13161,47.5306818 1748.29113,49.4273405 C1746.06012,48.5911049 1743.97864,47.3988873 1742.12722,45.8968162 C1741.31778,42.4285718 1741.02109,38.8599411 1741.24666,35.3052432 C1752.69392,26.4789324 1765.90229,17.6526216 1777.34955,10.591573 L1777.34955,10.591573 L1776.46899,0.882631081 C1776.46899,0.0882631081 1777.18225,0.00882631081 1777.96682,0.000882631081 Z M1463.36902,178.747593 C1446.57916,178.747593 1443.04445,195.518972 1443.04445,212.290351 C1443.04445,229.06173 1448.34651,242.302292 1462.48534,242.302292 C1467.50181,242.786451 1472.44215,240.812489 1475.7405,237.006068 L1475.7405,182.278409 C1472.24514,179.515952 1467.79779,178.246681 1463.36902,178.747593 Z M1815.21356,197.709362 L1824.8997,207.418304 L1798.48295,229.484081 C1796.72183,232.131974 1794.96072,236.54513 1793.1996,239.193023 L1773.82732,239.193023 C1776.941,231.377006 1782.93008,225.05787 1790.55793,221.540401 L1815.21356,197.709362 Z M1863.64427,141.220973 C1866.28594,142.103604 1879.49432,151.812546 1879.49432,151.812546 C1886.53878,161.521488 1890.94158,203.88778 1890.94158,218.892508 C1883.2263,215.659511 1876.08827,211.187739 1869.80818,205.653042 L1866.28594,157.990964 C1864.66772,152.249388 1862.60688,146.642518 1860.12203,141.220973 C1860.12203,141.220973 1861.00259,140.338342 1863.64427,141.220973 Z M997.671269,107.689908 C981.765084,107.689908 978.230376,125.343991 978.230376,172.127312 L978.230376,172.127312 L1017.99584,172.127312 C1017.11216,124.461287 1013.57745,107.689908 997.671269,107.689908 Z M1179.70872,120.047766 C1166.45357,120.047766 1160.26783,132.405624 1160.26783,148.294299 L1160.26783,253.336095 L1176.17401,253.336095 L1176.17401,270.107474 L1086.92264,270.107474 L1086.92264,253.336095 L1103.7125,253.336095 L1103.7125,108.572612 L1086.92264,108.572612 L1086.92264,92.2425849 L1156.73312,92.2425849 L1156.73312,119.606414 L1157.6168,119.606414 C1165.63919,100.87967 1184.05994,88.7284157 1204.45167,88.7117683 C1227.23889,87.3461654 1247.41026,103.313429 1251.28655,125.785343 C1253.00589,135.401044 1253.89284,145.146811 1253.93758,154.91458 L1253.93758,253.777447 L1275.14583,253.777447 L1275.14583,270.548826 L1197.38226,270.548826 L1198.264,148.021 L1198.265,148.131 L1198.265,147.857 L1198.264,147.952 L1198.26434,147.818707 C1198.1591,132.159703 1192.83132,120.047766 1179.70872,120.047766 Z M1707.34516,71.4931176 C1710.42712,70.6104865 1710.42712,71.4931176 1709.54656,72.3757487 L1709.54656,72.3757487 L1695.45763,87.380477 L1691.05484,89.1457392 C1688.19733,91.5680754 1685.54646,94.2251869 1683.12981,97.0894189 L1683.12981,97.0894189 L1665.51864,92.6762635 C1665.51864,90.0283703 1669.92144,85.6152149 1674.32423,82.9673216 C1678.60242,80.6501757 1683.01282,78.5871441 1687.5326,76.7889041 C1687.5326,76.7889041 1706.90489,71.4931176 1707.78544,71.4931176 L1707.78544,71.4931176 Z M667.176092,18.0954353 C687.500662,18.0954353 701.639493,28.6878853 701.639493,44.5765602 C701.639493,60.4652351 687.500662,71.057685 667.176092,71.057685 C646.851523,71.057685 632.712692,60.4652351 632.712692,44.5765602 C632.712692,29.5705894 646.851523,18.0954353 667.176092,18.0954353 Z" id="Combined-Shape" fill="#000000" fill-rule="nonzero"></path>
    </g>
</svg>