<?xml version="1.0" encoding="UTF-8" standalone="no"?><!-- Generator: Gravit.io --><svg xmlns="http://www.w3.org/2000/svg" xmlns:xlink="http://www.w3.org/1999/xlink" style="isolation:isolate" viewBox="0 0 54 42" width="54pt" height="42pt"><defs><clipPath id="_clipPath_Z7lLpKP1eGsdhdAPWYqGPJRp8KFaClFQ"><rect width="54" height="42"/></clipPath></defs><g clip-path="url(#_clipPath_Z7lLpKP1eGsdhdAPWYqGPJRp8KFaClFQ)"><path d=" M 48 0 L 12 42 L 3 42 L 39 0 L 48 0 L 48 0 Z  M 54 3.5 L 54 14 L 30 42 L 21 42 L 54 3.5 L 54 3.5 Z  M 54 24.5 L 54 35 L 48 42 L 39 42 L 54 24.5 L 54 24.5 Z  M 30 0 L 0 35 L 0 24.5 L 21 0 L 30 0 L 30 0 Z  M 12 0 L 0 14 L 0 3.5 L 3 0 L 12 0 L 12 0 Z " fill-rule="evenodd" fill="rgb(255,238,206)"/></g></svg>
