<?xml version="1.0" encoding="UTF-8"?>
<svg width="32px" height="32px" viewBox="0 0 32 32" version="1.1" xmlns="http://www.w3.org/2000/svg" xmlns:xlink="http://www.w3.org/1999/xlink">
    <!-- Generator: Sketch 62 (91390) - https://sketch.com -->
    <title>Icon/Changeover</title>
    <desc>Created with Sketch.</desc>
    <defs>
        <path d="M18.0651246,28.236641 L18.0721957,15.3885108 C20.3844348,14.3914902 22.0107804,12.1146064 22.0037323,9.42052957 C22.0037323,6.16783838 19.6207595,3.48790368 16.5024186,3 L16.4953475,8.43765115 L14.5083775,8.41643794 L14.4942353,3.01414214 C11.3829655,3.49497475 8.99294458,6.18198052 9,9.42760064 C9,12.0580379 10.5697927,14.3207796 12.8254633,15.3460844 L12.8254633,28.22957 C12.8254633,28.7811132 13.2709406,29.2265905 13.8224839,29.2265905 L17.0751751,29.2265905 C17.6337894,29.2195194 18.0651246,28.7881843 18.0651246,28.236641 Z M14.8195045,27.2396205 L14.8195045,13.8611602 C14.0699713,13.7480231 13.3982198,13.4581093 12.8254633,13.0267742 C11.7223768,12.2065303 11.0010639,10.9054538 11.0010639,9.43467171 C10.9940568,8.09823989 11.5738843,6.89615836 12.5001942,6.06884343 L12.5001942,10.4387633 L18.4964597,10.4387633 L18.5106019,6.05470129 C19.4369117,6.9103005 19.9955261,8.09116882 20.0025972,9.42760064 C20.0025972,10.9549513 19.2389218,12.2984542 18.0792667,13.1045559 C17.4923681,13.5217489 16.8135456,13.7763073 16.0710835,13.8682312 L16.0781545,27.2396205 L14.8195045,27.2396205 Z" id="path-1"></path>
    </defs>
    <g id="Icon/Changeover" stroke="none" stroke-width="1" fill="none" fill-rule="evenodd">
        <mask id="mask-2" fill="white">
            <use xlink:href="#path-1"></use>
        </mask>
        <use id="Shape" fill="#FFFFFF" fill-rule="nonzero" xlink:href="#path-1"></use>
        <g id="✱-/-Color-/-Primary-/-700" mask="url(#mask-2)" fill="#818181">
            <rect id="Rectangle-13" x="0" y="0" width="32" height="32"></rect>
        </g>
    </g>
</svg>